<svg xmlns="http://www.w3.org/2000/svg" xmlns:xlink="http://www.w3.org/1999/xlink" width="200" zoomAndPan="magnify" viewBox="0 0 150 149.999998" height="200" preserveAspectRatio="xMidYMid meet" version="1.0"><defs><clipPath id="3caf071288"><path d="M 1 18 L 149.625 18 L 149.625 132.949219 L 1 132.949219 Z M 1 18 " clip-rule="nonzero"/></clipPath></defs><g clip-path="url(#3caf071288)"><path fill="#ffffff" d="M 149.574219 85.871094 C 149.574219 112.027344 128.296875 133.304688 102.144531 133.304688 L 67.960938 133.304688 C 63.480469 133.304688 59.847656 129.667969 59.847656 125.1875 C 59.847656 121.855469 61.855469 118.996094 64.722656 117.746094 C 65.710938 117.316406 66.8125 117.074219 67.960938 117.074219 L 102.144531 117.074219 C 119.347656 117.074219 133.34375 103.078125 133.34375 85.875 C 133.34375 68.667969 119.347656 54.671875 102.144531 54.671875 L 52.121094 54.671875 L 52.121094 68.949219 C 52.121094 72.441406 49.246094 74.9375 46.121094 74.921875 C 45.136719 74.917969 44.125 74.660156 43.175781 74.113281 L 4.394531 51.726562 C 0.417969 49.425781 0.417969 43.6875 4.394531 41.390625 L 43.175781 19.003906 C 47.148438 16.707031 52.121094 19.578125 52.121094 24.171875 L 52.121094 38.445312 L 102.148438 38.445312 C 128.300781 38.445312 149.574219 59.71875 149.574219 85.871094 Z M 149.574219 85.871094 " fill-opacity="1" fill-rule="nonzero"/></g></svg>